Coordinates
version=1
nRows=32
nColumns=12
inDegrees=yes

Units are S.I. units (second, meters, Newtons, ...)
Angles are in degrees

endheader
time	SC_y	SC_z	SC_x	AC_y	AC_z	AC_x	GH_y	GH_z	GH_yy	EL_x	PS_y
       0.0              -16.22          37.09          5.829          38.22         -0.325         -15.19         -7.056          86.34         -3.516          68.63           46.9
  0.004772              -16.23          37.08          5.836          38.22        -0.3252         -15.19         -7.067          86.32         -3.517          68.63          46.92
  0.009544              -16.23          37.08          5.844          38.22        -0.3254         -15.19         -7.079           86.3         -3.517          68.62          46.93
   0.01432              -16.24          37.08          5.852          38.22        -0.3256         -15.19         -7.092          86.29         -3.517          68.62          46.95
   0.01909              -16.24          37.08          5.861          38.22        -0.3258         -15.18         -7.105          86.27         -3.517          68.62          46.96
   0.02386              -16.25          37.07          5.871          38.22        -0.3261         -15.18          -7.12          86.25         -3.517          68.62          46.98
   0.02863              -16.26          37.07          5.881          38.23        -0.3264         -15.18         -7.135          86.23         -3.518          68.62           47.0
    0.0334              -16.27          37.07          5.891          38.23        -0.3267         -15.18         -7.152          86.21         -3.518          68.62          47.02
   0.03818              -16.27          37.07          5.903          38.23         -0.327         -15.18         -7.169          86.18         -3.518          68.61          47.04
   0.04295              -16.28          37.06          5.915          38.23        -0.3273         -15.17         -7.188          86.16         -3.518          68.61          47.07
   0.04772              -16.29          37.06          5.928          38.23        -0.3277         -15.17         -7.209          86.13         -3.519          68.61          47.09
   0.05249               -16.3          37.05          5.942          38.23        -0.3281         -15.17         -7.231           86.1         -3.519          68.61          47.12
   0.05727              -16.31          37.05          5.958          38.23        -0.3285         -15.17         -7.254          86.07         -3.519          68.61          47.15
   0.06204              -16.33          37.05          5.974          38.23        -0.3289         -15.16          -7.28          86.04          -3.52           68.6          47.18
   0.06681              -16.34          37.04          5.992          38.24        -0.3294         -15.16         -7.307           86.0          -3.52           68.6          47.21
   0.07158              -16.35          37.04          6.011          38.24          -0.33         -15.16         -7.337          85.96         -3.521           68.6          47.25
   0.07635              -16.37          37.03          6.032          38.24        -0.3305         -15.15          -7.37          85.92         -3.521          68.59          47.29
   0.08113              -16.38          37.02          6.055          38.24        -0.3312         -15.15         -7.405          85.87         -3.521          68.59          47.33
    0.0859               -16.4          37.02           6.08          38.24        -0.3319         -15.14         -7.444          85.82         -3.522          68.58          47.38
   0.09067              -16.42          37.01          6.108          38.25        -0.3326         -15.14         -7.486          85.76         -3.523          68.58          47.43
   0.09544              -16.44           37.0          6.138          38.25        -0.3334         -15.13         -7.533           85.7         -3.523          68.57          47.49
    0.1002              -16.47          36.99          6.171          38.25        -0.3343         -15.13         -7.584          85.63         -3.524          68.57          47.55
     0.105              -16.49          36.98          6.208          38.26        -0.3353         -15.12         -7.641          85.56         -3.525          68.56          47.62
    0.1098              -16.52          36.97          6.248          38.26        -0.3365         -15.11         -7.704          85.47         -3.526          68.56           47.7
    0.1145              -16.56          36.96          6.294          38.27        -0.3377         -15.11         -7.773          85.38         -3.527          68.55          47.78
    0.1193              -16.59          36.94          6.344          38.27        -0.3391          -15.1         -7.851          85.28         -3.528          68.54          47.88
    0.1241              -16.63          36.93            6.4          38.28        -0.3406         -15.09         -7.938          85.16         -3.529          68.53          47.99
    0.1288              -16.68          36.91          6.464          38.28        -0.3424         -15.08         -8.036          85.03         -3.531          68.52          48.11
    0.1336              -16.73          36.89          6.535          38.29        -0.3443         -15.06         -8.147          84.88         -3.532          68.51          48.24
    0.1384              -16.79          36.87          6.617           38.3        -0.3466         -15.05         -8.273          84.72         -3.534          68.49           48.4
    0.1432              -16.86          36.84           6.71          38.31        -0.3491         -15.03         -8.417          84.53         -3.536          68.48          48.57
    0.1479              -16.93          36.81          6.816          38.32         -0.352         -15.01         -8.581          84.31         -3.539          68.46          48.78
